<svg width="220px" xmlns="http://www.w3.org/2000/svg" viewBox="0 0 370.0169491525424 113.82910013959915" class="looka-1j8o68f"><defs id="SvgjsDefs3344"></defs><g id="SvgjsG3345" featurekey="symbolFeature-0" transform="matrix(1.7299256543855674,0,0,1.7299256543855674,-32.69559750754429,-21.451080754038102)" fill="#ffffff"><path xmlns="http://www.w3.org/2000/svg" d="M69.4,28.6c0,0-3.4-2-4.3-3c-2.3-2.8-3.7-6.2-6.7-8.2c-3.5-2.3-7.9-3-12.4-3c-2.3,0-4.5,0.3-6.6,0.8c-2.8-1.8-6-2.8-9.6-2.8  c-2.9,0-5.7,0.7-8.2,2c0.3,0,0.6,0,0.9,0c3.9,0,7.5,1.3,10.4,3.4c-8.3,4.6-14,13.5-14,23.7c0,15,12.2,28,27.1,27.1  c1.9-0.1,3.6-0.4,5-0.9c1.2,4.4,5.3,6.3,7.8,10.5c0.1-1.1,0-2.6-0.2-3.8c-0.5-3.2-1.9-6.1-3.9-8.3c3.3-2.1,4.6-4.3,4.9-7.7  c-2.9,3.8-7.5,6.3-12.6,6.3c-8.1,0-14.8-6.1-15.7-14c-0.1-0.6-0.1-1.2-0.1-1.8c0-0.8,0.1-1.7,0.2-2.5c0.8,6.9,5.3,12.8,11.5,15.4  c-3-3.4-4.9-7.9-4.9-12.8c0-6.6,3.3-12.5,8.4-15.9c3.1-2.1,6.8-3.3,10.8-3.3c3.3,0,6.5,0.9,9.2,2.4l0.3,0.2c0.2,0.1,0.4,0.2,0.6,0.3  c0,0,0,0,0.1,0c0,0,0,0,0,0c0.9,0.3,2,0,2.6-0.9C70.6,30.7,70.4,29.3,69.4,28.6z"></path></g><g id="SvgjsG3346" featurekey="nameFeature-0" transform="matrix(1.0242385532232616,0,0,1.0242385532232616,107.64800505602184,17.11883434547417)" fill="#ffffff"><path d="M1.32 37.52 l0 -3.68 l2.2 0 l1.88 2.12 c1.68 1.88 3.88 2.24 6.52 2.28 c3.16 0 6.12 -1.04 6.12 -3.68 c0 -3.24 -5.6 -6.4 -8.8 -8.2 c-2.76 -1.56 -7.4 -3.76 -7.4 -7.08 c0 -6.16 7.76 -7.28 9.92 -7.28 c2.68 0 5.4 0.6 8.28 1.8 l0.08 3.64 l-2.28 0 l-1.32 -1.6 c-1.28 -1.52 -3.24 -2.4 -5.16 -2.4 c-3.4 0 -5.28 2.4 -5.28 3.76 c0 2.84 5.76 4.88 11.36 8.56 c3.16 2.08 4.6 4.56 4.6 6.88 c0 3.92 -3.96 7.48 -10 7.48 c-7.32 0 -10.72 -2.6 -10.72 -2.6 z M34.120000000000005 29.16 l-0.52 -3.76 c3.12 -0.48 6.28 -0.72 9.84 -0.72 c3.16 0 6.36 0.24 9.52 0.64 l5.2 -13.32 l4.36 0 l9.52 24.08 c0.12 0.36 0.4 0.68 0.64 0.88 l2.24 1.88 l0 1.16 l-8.48 0 l0 -1.16 l0.2 -0.12 c0.68 -0.44 1.04 -1.16 1.04 -1.96 c0 -0.32 -0.04 -0.6 -0.16 -0.92 l-2.28 -5.76 c-3.68 -1.2 -7.44 -2.12 -11.24 -2.68 l-3.48 8.8 c-0.12 0.24 -0.2 0.52 -0.2 0.8 c0 0.68 0.36 1.4 0.92 1.84 l0 1.16 l-4.8 0 l0 -1.16 l1.52 -1.6 c0.2 -0.2 0.6 -0.72 0.68 -0.96 l3.6 -9.16 c-3.04 -0.36 -6.08 -0.56 -9.16 -0.56 s-5.4 0.52 -7.68 2.36 z M24.64 40 l0 -1.16 c1.28 -1.4 2 -3.2 2 -5.2 l0 -15.16 c0 -2 -0.72 -3.84 -2 -5.32 l0 -1.16 l20 0 l0 5.16 l-1.84 0 c-2.72 -2.08 -6 -3.24 -9.36 -3.24 l-2.4 0 l0 24.24 l2.28 0 c3.28 0 6.44 -1.12 9.12 -3.04 l0.36 -0.28 l1.64 0 l0 5.16 l-19.8 0 z M64.36 27.8 l-5.24 -13.32 l-4.4 11.08 c3.24 0.52 6.48 1.28 9.64 2.24 z M113.36 34.76 l2.92 0 c-2.72 3.4 -6.96 5.64 -11.8 5.64 c-8.24 0 -15.08 -6.4 -15.08 -14.48 c0 -8.2 6.84 -14.32 15.08 -14.32 l1.52 0 c3.08 0 6.52 1.2 8.36 3.28 l-7.04 0 c-1.56 -1 -3.28 -1.56 -4.96 -1.56 c-4.96 0 -7.76 4.04 -7.76 9.32 c0 8.84 6.16 16.32 12 16.32 c3 0 5.32 -1.72 6.76 -4.2 z M101.04 25 c0 -4.76 3.96 -8.68 8.84 -8.68 c4.84 0 8.72 3.92 8.72 8.68 s-3.88 8.64 -8.72 8.64 c-4.88 0 -8.84 -3.88 -8.84 -8.64 z M111.16 32.24 c2.84 0 4.4 -2.96 4.4 -5.72 c0 -4.8 -3.64 -8.68 -6.84 -8.68 c-2.76 0 -4.24 2.28 -4.24 5.28 c0 5.04 3.44 9.12 6.68 9.12 z M121.36 40 l0 -1.08 l0.64 -0.68 c0.72 -0.76 1.12 -1.64 1.12 -2.72 l0 -18.64 c0 -0.96 -0.32 -1.92 -0.92 -2.56 l-1.12 -1.16 l0 -1.16 l6.36 0 l16.28 25.32 l0 -21.4 c0 -1.04 -0.4 -2 -1.24 -2.76 l0 -1.16 l4.8 0 l0 1.16 l-0.64 0.64 c-0.76 0.68 -1.2 1.68 -1.2 2.68 l0 23.52 l-4.32 0 l-15.8 -24.6 l-0.44 0 l0 20.72 c0 1.04 0.48 2.04 1.24 2.8 l0 1.08 l-4.76 0 z M150.2 40 l0 -1.08 l0.64 -0.68 c0.72 -0.76 1.12 -1.64 1.12 -2.72 l0 -18.64 c0 -0.96 -0.32 -1.92 -0.92 -2.56 l-1.12 -1.16 l0 -1.16 l6.36 0 l16.28 25.32 l0 -21.4 c0 -1.04 -0.4 -2 -1.24 -2.76 l0 -1.16 l4.8 0 l0 1.16 l-0.64 0.64 c-0.76 0.68 -1.2 1.68 -1.2 2.68 l0 23.52 l-4.32 0 l-15.8 -24.6 l-0.44 0 l0 20.72 c0 1.04 0.48 2.04 1.24 2.8 l0 1.08 l-4.76 0 z M178.84 40 l0 -1.08 c1.32 -1.44 2 -3.32 2 -5.28 l0 -15.28 c0 -1.92 -0.68 -3.84 -2 -5.24 l0 -1.12 l19.8 0 l0.24 5.16 l-1.88 0 c-2.72 -2.16 -6 -3.28 -9.36 -3.28 l-2.4 0 l0 11.6 l6 0 l0 1.84 l-6 0 l0 10.8 l2.36 0 c3.24 0 6.36 -1.08 9.04 -3 l0.36 -0.28 l1.88 0 l-0.24 5.08 l0 0.08 l-19.8 0 z M225.35999999999999 32.28 l3.48 0 c-2.52 4.76 -7.52 8 -13.36 8 c-8.32 0 -15.04 -6.2 -15.04 -14.32 c0 -8.16 6.72 -14.36 15.04 -14.36 l1.56 0 c5.08 0 9.68 3 11.68 7.68 l-5.8 0 c-2.88 -4.32 -7.32 -6.76 -11.32 -5.84 c-5.36 1.24 -7.28 7.56 -5.12 14.68 c2.2 7.16 7.6 11.72 12.88 10.48 c3 -0.68 5.08 -3.16 6 -6.32 z M238.84 40 l0 -1.08 c1.36 -1.4 2.08 -3.28 2.08 -5.24 l0 -19.76 l-3.68 0 c-1.88 0 -3.72 0.72 -4.96 2.12 l-2.24 0 l0 -4.04 l26.12 0 l0 4.04 l-2.16 0 c-1.28 -1.4 -3.2 -2.12 -5.04 -2.12 l-3.6 0 l0 19.76 c0 1.96 0.64 3.84 2 5.24 l0 1.08 l-8.52 0 z"></path></g><g id="SvgjsG3347" featurekey="sloganFeature-0" transform="matrix(0.579189537200826,0,0,0.579189537200826,108.11198672485004,74.70252906348806)" fill="#ffffff"><path d="M7.0508 20.19531 c-3.0957 0 -5.5176 -1.582 -5.5176 -5.1367 l0 -9.1699 l2.9297 0 l0 8.7695 c0 2.1484 1.1426 2.9492 2.5879 2.9492 c1.4551 0 2.6074 -0.81055 2.6074 -2.9492 l0 -8.7695 l2.9297 0 l0 9.1699 c0 3.5547 -2.4316 5.1367 -5.5371 5.1367 z M38.0909765625 5.888999999999999 l2.9199 0 l0 14.111 l-3.3887 0 l-6.25 -10.088 l0 10.088 l-2.9199 0 l0 -14.111 l3.3496 0 l6.2891 10.029 l0 -10.029 z M57.167996875 20 l0 -14.111 l2.9297 0 l0 14.111 l-2.9297 0 z M76.2451453125 20 l0 -14.111 l5.1074 0 c4.502 0 6.7285 2.832 6.7285 7.0508 c0 4.2285 -2.2266 7.0605 -6.7285 7.0605 l-5.1074 0 z M79.1748453125 17.4121 l2.0313 0 c2.5977 0 3.7891 -1.6211 3.7891 -4.4727 s-1.1914 -4.4727 -3.7891 -4.4727 l-2.0313 0 l0 8.9453 z M109.58010625 20.19531 c-4.1504 0 -7.2168 -2.832 -7.2168 -7.2559 c0 -4.4336 3.0664 -7.2461 7.2168 -7.2461 c4.1406 0 7.207 2.8125 7.207 7.2461 c0 4.4238 -3.0664 7.2559 -7.207 7.2559 z M109.58010625 17.5098 c2.4316 0 4.2969 -1.709 4.2969 -4.5703 c0 -2.8516 -1.8652 -4.5508 -4.2969 -4.5508 s-4.2969 1.6992 -4.2969 4.5508 c0 2.8613 1.8652 4.5703 4.2969 4.5703 z M136.6748328125 20.19531 c-3.0273 0 -5.3906 -1.4551 -5.8203 -4.1016 l3.0273 -0.69336 c0.19531 1.582 1.3574 2.4023 2.9102 2.4023 c1.1914 0 2.1387 -0.52734 2.1289 -1.7188 c-0.0097656 -1.3281 -1.5723 -1.748 -3.291 -2.2754 c-2.0703 -0.64453 -4.2871 -1.4063 -4.2871 -4.0039 c0 -2.627 2.1484 -4.1113 4.9805 -4.1113 c2.4805 0 4.9805 1.0059 5.5469 3.7109 l-2.832 0.70313 c-0.26367 -1.4063 -1.2109 -2.0215 -2.5391 -2.0215 c-1.1816 0 -2.1875 0.48828 -2.1875 1.6504 c0 1.084 1.3867 1.4453 2.9883 1.9238 c2.1289 0.64453 4.6484 1.4648 4.6484 4.2773 c0 2.998 -2.5098 4.2578 -5.2734 4.2578 z M180.7275265625 5.888999999999999 c2.7637 0 4.4824 2.0508 4.4824 4.5605 c0 2.5684 -1.7188 4.4922 -4.4824 4.4922 l-2.9395 0 l0 5.0586 l-2.9297 0 l0 -14.111 l5.8691 0 z M180.2392265625 12.4902 c1.4648 0 2.1484 -0.81055 2.1484 -2.0801 c0 -1.2207 -0.68359 -2.0703 -2.1484 -2.0703 l-2.4512 0 l0 4.1504 l2.4512 0 z M208.359609375 8.467 l-5.2344 0 l0 3.2031 l4.6387 0 l0 2.5488 l-4.6387 0 l0 3.1934 l5.2344 0 l0 2.5879 l-8.1836 0 l0 -14.111 l8.1836 0 l0 2.5781 z M226.8115640625 17.4121 l4.4238 0 l0 2.5879 l-7.3535 0 l0 -14.111 l2.9297 0 l0 11.523 z M252.226590625 20.19531 c-4.1504 0 -7.2168 -2.832 -7.2168 -7.2559 c0 -4.4336 3.0664 -7.2461 7.2168 -7.2461 c4.1406 0 7.207 2.8125 7.207 7.2461 c0 4.4238 -3.0664 7.2559 -7.207 7.2559 z M252.226590625 17.5098 c2.4316 0 4.2969 -1.709 4.2969 -4.5703 c0 -2.8516 -1.8652 -4.5508 -4.2969 -4.5508 s-4.2969 1.6992 -4.2969 4.5508 c0 2.8613 1.8652 4.5703 4.2969 4.5703 z M308.5058125 20 l-2.9199 0 l-0.92773 -10.635 l-3.5742 10.635 l-1.8945 0 l-3.5742 -10.635 l-0.9375 10.635 l-2.9297 0 l1.1816 -14.111 l4.1797 0 l3.0078 8.8574 l3.0469 -8.8574 l4.1797 0 z M333.5209765625 20 l-1.0254 -2.9102 l-5.9277 0 l-1.0254 2.9102 l-2.998 0 l5.1953 -14.111 l3.584 0 l5.1953 14.111 l-2.998 0 z M327.4267765625 14.6387 l4.209 0 l-2.0996 -5.9863 z M358.59370625 20 l-3.6719 -6.2109 l-0.84961 0 l0 6.2109 l-2.9297 0 l0 -14.111 l5.1172 0 c3.1934 0 4.541 1.8848 4.541 4.2188 c0 1.8945 -1.0742 3.125 -2.9883 3.5352 l4.248 6.3574 l-3.4668 0 z M354.07230625 8.32 l0 3.3691 l1.7285 0 c1.5625 0 2.1973 -0.66406 2.1973 -1.6797 c0 -1.0059 -0.63477 -1.6895 -2.1973 -1.6895 l-1.7285 0 z"></path></g></svg>